<svg width="39.000000" height="52.000000" viewBox="0 0 39 52" fill="none" xmlns="http://www.w3.org/2000/svg" xmlns:xlink="http://www.w3.org/1999/xlink">
	<desc>
			Created with Pixso.
	</desc>
	<defs/>
	<path id="Vector" d="M39 19.5L34.12 14.62L22.94 3.44L19.5 0L16.05 3.44L4.87 14.62L0 19.5L9.75 19.5L9.75 42.25L29.25 42.25L29.25 19.5L39 19.5ZM19.5 6.89L27.23 14.62L24.37 14.62L24.37 37.37L14.62 37.37L14.62 14.62L11.76 14.62L19.5 6.89ZM12.18 47.12C11.54 47.12 10.92 47.38 10.46 47.83C10 48.29 9.75 48.91 9.75 49.56C9.75 50.2 10 50.82 10.46 51.28C10.92 51.74 11.54 52 12.18 52L26.81 52C27.45 52 28.07 51.74 28.53 51.28C28.99 50.82 29.25 50.2 29.25 49.56C29.25 48.91 28.99 48.29 28.53 47.83C28.07 47.38 27.45 47.12 26.81 47.12L12.18 47.12Z" fill="#0066FF" fill-opacity="1.000000" fill-rule="evenodd"/>
	<path id="Vector" d="M30.25 19.5L39 19.5L34.12 14.62L22.94 3.44L20.2 0.7L19.5 0L18.79 0.7L0 19.5L9.75 19.5L9.75 42.25L29.25 42.25L29.25 19.5L30.25 19.5ZM28.25 41.25L28.25 18.5L36.58 18.5L33.41 15.33L22.23 4.15L19.5 1.41L16.76 4.15L5.58 15.33L2.41 18.5L10.75 18.5L10.75 41.25L28.25 41.25ZM25.37 15.62L29.64 15.62L19.5 5.47L9.35 15.62L13.62 15.62L13.62 38.37L25.37 38.37L25.37 15.62ZM24.37 15.62L24.37 14.62L27.23 14.62L26.23 13.62L20.2 7.6L19.5 6.89L18.79 7.6L12.76 13.62L11.76 14.62L14.62 14.62L14.62 37.37L24.37 37.37L24.37 15.62ZM12.18 47.12C11.54 47.12 10.92 47.38 10.46 47.83C10 48.29 9.75 48.91 9.75 49.56C9.75 50.2 10 50.82 10.46 51.28C10.92 51.74 11.54 52 12.18 52L26.81 52C27.45 52 28.07 51.74 28.53 51.28C28.99 50.82 29.25 50.2 29.25 49.56C29.25 48.91 28.99 48.29 28.53 47.83C28.07 47.38 27.45 47.12 26.81 47.12L12.18 47.12ZM10.85 49.01Q10.96 48.75 11.17 48.54Q11.38 48.33 11.63 48.23Q11.88 48.12 12.18 48.12L26.81 48.12Q27.11 48.12 27.36 48.23Q27.61 48.33 27.82 48.54Q28.03 48.75 28.14 49.01Q28.25 49.26 28.25 49.56Q28.25 49.86 28.14 50.11Q28.03 50.36 27.82 50.57Q27.61 50.78 27.36 50.89Q27.11 51 26.81 51L12.18 51Q11.88 51 11.63 50.89Q11.38 50.78 11.17 50.57Q10.96 50.36 10.85 50.11Q10.75 49.86 10.75 49.56Q10.75 49.26 10.85 49.01Z" fill="#FFFFFF" fill-opacity="1.000000" fill-rule="evenodd"/>
</svg>
