<svg width="60.000000" height="39.000000" viewBox="0 0 60 39" fill="none" xmlns="http://www.w3.org/2000/svg" xmlns:xlink="http://www.w3.org/1999/xlink">
	<desc>
			Created with Pixso.
	</desc>
	<defs/>
	<path id="Vector" d="M59.78 21.96C59.33 17.03 58.59 16.08 58.31 15.71C57.66 14.88 56.63 14.34 55.54 13.76C55.48 13.73 55.43 13.69 55.39 13.63C55.35 13.58 55.32 13.51 55.31 13.45C55.3 13.38 55.3 13.31 55.32 13.25C55.34 13.18 55.38 13.12 55.43 13.07C55.63 12.87 55.79 12.63 55.88 12.37C55.98 12.11 56.02 11.82 55.99 11.55C55.95 11.05 55.71 10.59 55.33 10.26C54.95 9.92 54.46 9.74 53.95 9.75L52 9.75C51.92 9.75 51.83 9.75 51.75 9.76C51.69 9.74 51.63 9.72 51.57 9.7C50.42 7.32 48.84 4.06 45.56 2.47C40.7 0.12 31.74 0 29.99 0C28.24 0 19.28 0.12 14.43 2.47C11.15 4.06 9.57 7.32 8.41 9.7L8.4 9.72C8.35 9.73 8.29 9.74 8.24 9.76C8.15 9.75 8.07 9.75 7.99 9.75L6.03 9.75C5.52 9.74 5.03 9.92 4.65 10.26C4.27 10.59 4.03 11.05 3.99 11.55C3.96 11.82 4 12.1 4.1 12.37C4.2 12.63 4.36 12.87 4.56 13.06C4.61 13.11 4.65 13.17 4.67 13.24C4.69 13.3 4.69 13.37 4.68 13.44C4.67 13.51 4.64 13.57 4.6 13.62C4.56 13.68 4.51 13.73 4.45 13.76C3.36 14.33 2.32 14.88 1.68 15.71C1.4 16.07 0.66 17.03 0.21 21.95C-0.04 24.72 -0.08 27.59 0.12 29.44C0.53 33.28 1.3 35.6 1.34 35.7C1.45 36.05 1.67 36.36 1.96 36.59C2.26 36.83 2.61 36.97 2.99 37.02L2.99 37.05C2.99 37.56 3.2 38.06 3.57 38.42C3.95 38.79 4.46 39 4.99 39L11.99 39C12.52 39 13.03 38.79 13.4 38.42C13.78 38.06 13.99 37.56 13.99 37.05C15.06 37.05 15.81 36.86 16.61 36.66C17.75 36.36 18.92 36.16 20.11 36.06C23.92 35.7 27.71 35.58 29.99 35.58C32.22 35.58 36.18 35.7 40 36.06C41.19 36.16 42.37 36.36 43.52 36.66C44.28 36.85 45 37.03 46 37.04C46 37.56 46.21 38.06 46.58 38.42C46.96 38.79 47.47 38.99 48 38.99L55 38.99C55.53 38.99 56.04 38.79 56.41 38.42C56.79 38.06 57 37.56 57 37.04L57 37.03C57.37 36.98 57.73 36.84 58.02 36.6C58.32 36.37 58.54 36.06 58.65 35.7C58.69 35.61 59.46 33.29 59.87 29.45C60.07 27.6 60.03 24.74 59.78 21.96ZM12.03 11.37C13.03 9.3 14.17 6.95 16.21 5.96C19.15 4.53 25.25 3.89 29.99 3.89C34.73 3.89 40.83 4.53 43.77 5.96C45.81 6.95 46.95 9.3 47.95 11.37L48.08 11.63C48.15 11.78 48.18 11.95 48.17 12.11C48.16 12.28 48.1 12.44 48.01 12.58C47.92 12.72 47.79 12.83 47.64 12.91C47.49 12.99 47.32 13.03 47.15 13.02C42.99 12.91 34.24 12.56 29.99 12.56C25.74 12.56 16.99 12.92 12.83 13.03C12.66 13.04 12.49 13 12.34 12.92C12.19 12.84 12.06 12.73 11.96 12.59C11.87 12.45 11.82 12.29 11.8 12.12C11.79 11.96 11.83 11.79 11.9 11.64C11.94 11.55 11.99 11.46 12.03 11.37ZM13.52 21.07C11.37 21.32 9.21 21.45 7.04 21.45C5.71 21.45 4.35 21.08 4.09 19.93C3.92 19.16 3.94 18.72 4.03 18.28C4.11 17.91 4.24 17.64 4.86 17.54C6.49 17.3 7.4 17.61 10.06 18.37C11.82 18.88 13.09 19.55 13.82 20.08C14.18 20.35 13.99 21.04 13.52 21.07ZM41.2 31.07C39.55 31.25 36.26 31.18 30.03 31.18C23.79 31.18 20.51 31.25 18.86 31.07C17.16 30.88 15 29.32 16.48 27.92C17.46 27 19.76 26.32 22.81 25.93C25.87 25.54 27.16 25.35 30.02 25.35C32.87 25.35 34.03 25.47 37.22 25.93C40.41 26.4 42.82 27.09 43.56 27.92C44.9 29.42 42.89 30.87 41.2 31.07L41.2 31.07ZM55.89 19.93C55.64 21.08 54.26 21.44 52.94 21.44C50.73 21.44 48.53 21.32 46.34 21.07C45.95 21.04 45.78 20.38 46.16 20.08C46.88 19.54 48.16 18.88 49.93 18.37C52.59 17.61 54.12 17.3 55.44 17.55C55.76 17.62 55.93 17.95 55.95 18.16C56.04 18.75 56.02 19.35 55.89 19.93L55.89 19.93Z" fill="#0066FF" fill-opacity="1.000000" fill-rule="nonzero"/>
	<path id="Vector" d="M57 37.03C57.37 36.98 57.73 36.84 58.02 36.6C58.32 36.37 58.54 36.06 58.65 35.7C58.69 35.61 59.46 33.29 59.87 29.45C60.07 27.6 60.03 24.74 59.78 21.96C59.33 17.03 58.59 16.08 58.31 15.71C57.66 14.88 56.63 14.34 55.54 13.76C55.48 13.73 55.43 13.69 55.39 13.63C55.35 13.58 55.32 13.51 55.31 13.45C55.3 13.38 55.3 13.31 55.32 13.25C55.34 13.18 55.38 13.12 55.43 13.07C55.63 12.87 55.79 12.63 55.88 12.37C55.98 12.11 56.02 11.82 55.99 11.55C55.95 11.05 55.71 10.59 55.33 10.26C54.95 9.92 54.46 9.74 53.95 9.75L52 9.75C51.92 9.75 51.83 9.75 51.75 9.76C51.69 9.74 51.63 9.72 51.57 9.7C50.42 7.32 48.84 4.06 45.56 2.47C40.7 0.12 31.74 0 29.99 0C28.24 0 19.28 0.12 14.43 2.47C11.15 4.06 9.57 7.32 8.41 9.7L8.4 9.72C8.35 9.73 8.29 9.74 8.24 9.76C8.15 9.75 8.07 9.75 7.99 9.75L6.03 9.75C5.52 9.74 5.03 9.92 4.65 10.26C4.27 10.59 4.03 11.05 3.99 11.55C3.96 11.82 4 12.1 4.1 12.37C4.2 12.63 4.36 12.87 4.56 13.06C4.61 13.11 4.65 13.17 4.67 13.24C4.69 13.3 4.69 13.37 4.68 13.44C4.67 13.51 4.64 13.57 4.6 13.62C4.56 13.68 4.51 13.73 4.45 13.76C3.36 14.33 2.32 14.88 1.68 15.71C1.4 16.07 0.66 17.03 0.21 21.95C-0.04 24.72 -0.08 27.59 0.12 29.44C0.53 33.28 1.3 35.6 1.34 35.7C1.45 36.05 1.67 36.36 1.96 36.59C2.26 36.83 2.61 36.97 2.99 37.02L2.99 37.05C2.99 37.56 3.2 38.06 3.57 38.42C3.95 38.79 4.46 39 4.99 39L11.99 39C12.52 39 13.03 38.79 13.4 38.42C13.78 38.06 13.99 37.56 13.99 37.05C15.06 37.05 15.81 36.86 16.61 36.66C17.75 36.36 18.92 36.16 20.11 36.06C23.92 35.7 27.71 35.58 29.99 35.58C32.22 35.58 36.18 35.7 40 36.06C41.19 36.16 42.37 36.36 43.52 36.66C44.28 36.85 45 37.03 46 37.04L46 37.04C46 37.56 46.21 38.06 46.58 38.42C46.96 38.79 47.47 38.99 48 38.99L55 38.99C55.53 38.99 56.04 38.79 56.41 38.42C56.79 38.06 57 37.56 57 37.04L57 37.03ZM55.08 14.65Q57 15.66 57.51 16.33L57.52 16.33Q58.36 17.41 58.78 22.05Q59.18 26.45 58.87 29.34Q58.47 33.12 57.71 35.38Q57.67 35.49 57.61 35.59Q57.53 35.72 57.4 35.82Q57.3 35.9 57.19 35.95Q57.04 36.02 56.88 36.04L56 36.14L56 37.04Q56 37.22 55.94 37.37Q55.87 37.56 55.71 37.71Q55.58 37.84 55.42 37.91Q55.23 37.99 55 37.99L48 37.99Q47.77 37.99 47.58 37.91Q47.42 37.84 47.28 37.71Q47.13 37.56 47.06 37.37Q47 37.22 47 37.04L47 36.06L46.02 36.04Q45.11 36.03 43.77 35.69Q42.61 35.39 41.42 35.21Q40.76 35.12 40.09 35.06Q34.92 34.58 29.99 34.58Q25.19 34.58 20.03 35.06Q18.67 35.17 17.36 35.45Q16.86 35.56 16.36 35.69Q14.94 36.05 13.99 36.05L12.99 36.05L12.99 37.05Q12.99 37.22 12.93 37.37Q12.86 37.56 12.7 37.71Q12.57 37.84 12.41 37.91Q12.22 38 11.99 38L4.99 38Q4.76 38 4.56 37.91Q4.4 37.84 4.27 37.71Q4.12 37.56 4.04 37.37Q3.99 37.22 3.99 37.05L3.99 36.14L3.11 36.03Q2.94 36.01 2.8 35.94Q2.69 35.89 2.59 35.81Q2.46 35.71 2.38 35.58Q2.32 35.48 2.28 35.38Q1.52 33.12 1.11 29.33Q0.81 26.46 1.21 22.04Q1.63 17.42 2.47 16.32L2.48 16.32Q2.98 15.66 4.9 14.65L4.91 14.65Q5.06 14.57 5.19 14.45Q5.31 14.35 5.41 14.22Q5.51 14.08 5.58 13.92Q5.64 13.77 5.67 13.6Q5.7 13.43 5.68 13.26Q5.67 13.1 5.62 12.93Q5.59 12.84 5.55 12.76Q5.44 12.54 5.26 12.35Q5.17 12.26 5.11 12.16Q5.07 12.09 5.04 12.01Q4.97 11.84 4.98 11.67Q4.98 11.65 4.98 11.64Q5 11.47 5.07 11.33Q5.15 11.15 5.31 11.01Q5.44 10.9 5.58 10.83Q5.79 10.74 6.03 10.75L7.98 10.75Q8.01 10.75 8.05 10.75Q8.08 10.75 8.11 10.75L8.35 10.78L8.56 10.71L9.06 10.64L9.31 10.15L9.31 10.14L9.31 10.14Q11.9 4.81 14.86 3.37Q19.77 1 29.99 1Q40.22 1 45.12 3.37Q48.09 4.81 50.67 10.14L50.67 10.14L50.88 10.57L51.35 10.68Q51.35 10.68 51.36 10.68L51.61 10.79L51.87 10.75Q51.94 10.75 52 10.75L53.96 10.74Q54.18 10.74 54.37 10.82Q54.53 10.89 54.67 11.01Q54.84 11.16 54.93 11.35Q54.98 11.48 55 11.63Q55.01 11.73 55 11.82Q54.98 11.92 54.95 12.02Q54.94 12.04 54.93 12.06Q54.86 12.23 54.72 12.37Q54.59 12.49 54.51 12.64Q54.42 12.78 54.37 12.94Q54.32 13.1 54.31 13.27Q54.29 13.44 54.32 13.61Q54.35 13.77 54.41 13.92Q54.48 14.08 54.58 14.22Q54.7 14.38 54.85 14.5Q54.95 14.59 55.08 14.65ZM29.99 2.89Q20.25 2.89 15.77 5.06L15.77 5.06Q13.41 6.21 11.13 10.93L11.12 10.94L11.12 10.96Q11.09 11.01 11.04 11.12Q11.01 11.18 11 11.2Q10.88 11.44 10.84 11.69Q10.79 11.94 10.81 12.19Q10.82 12.44 10.9 12.68Q10.98 12.92 11.13 13.15Q11.27 13.35 11.45 13.51Q11.64 13.69 11.88 13.81Q12.1 13.92 12.34 13.98Q12.59 14.04 12.85 14.03Q14.17 14 17.87 13.87Q27.09 13.56 29.99 13.56Q32.92 13.56 42.26 13.87Q45.84 13.99 47.12 14.02Q47.39 14.03 47.63 13.97Q47.87 13.92 48.09 13.8Q48.34 13.68 48.53 13.5Q48.71 13.34 48.84 13.14Q48.99 12.91 49.07 12.67Q49.15 12.44 49.17 12.18Q49.19 11.89 49.13 11.61Q49.08 11.4 48.98 11.2L48.85 10.93Q46.56 6.2 44.21 5.06Q39.75 2.89 29.99 2.89ZM12.03 11.37C13.03 9.3 14.17 6.95 16.21 5.96C19.15 4.53 25.25 3.89 29.99 3.89C34.73 3.89 40.83 4.53 43.77 5.96C45.81 6.95 46.95 9.3 47.95 11.37L48.08 11.63C48.15 11.78 48.18 11.95 48.17 12.11C48.16 12.28 48.1 12.44 48.01 12.58C47.92 12.72 47.79 12.83 47.64 12.91C47.49 12.99 47.32 13.03 47.15 13.02C42.99 12.91 34.24 12.56 29.99 12.56C25.74 12.56 16.99 12.92 12.83 13.03C12.66 13.04 12.49 13 12.34 12.92C12.19 12.84 12.06 12.73 11.96 12.59C11.87 12.45 11.82 12.29 11.8 12.12C11.79 11.96 11.83 11.79 11.9 11.64C11.94 11.55 11.99 11.46 12.03 11.37ZM52.94 22.44L52.94 22.44Q55.41 22.44 56.36 21.24Q56.72 20.78 56.86 20.15L56.86 20.15Q56.98 19.61 57 19.08Q57.02 18.56 56.94 18.04Q56.87 17.39 56.52 17.02Q56.19 16.68 55.63 16.57Q53.79 16.22 49.65 17.41Q47.03 18.16 45.55 19.29Q45.18 19.58 45.03 19.95Q44.87 20.36 44.98 20.88Q45.11 21.5 45.49 21.8Q45.79 22.02 46.22 22.06Q47.81 22.24 49.4 22.34Q51.17 22.44 52.94 22.44ZM55.86 20.04C55.55 21.11 54.22 21.44 52.94 21.44C50.73 21.44 48.53 21.32 46.34 21.07C45.95 21.04 45.78 20.38 46.16 20.08C46.88 19.54 48.16 18.88 49.93 18.37C52.59 17.61 54.12 17.3 55.44 17.55C55.76 17.62 55.93 17.95 55.95 18.16C56.03 18.72 56.02 19.28 55.91 19.82C55.9 19.86 55.9 19.89 55.89 19.93L55.89 19.93L55.89 19.93L55.89 19.93C55.88 19.97 55.87 20 55.86 20.04ZM7.04 22.45L7.04 22.45Q8.78 22.45 10.52 22.34Q12.07 22.25 13.62 22.07Q14.09 22.03 14.4 21.79Q14.78 21.5 14.94 20.95Q15.11 20.37 14.94 19.92Q14.79 19.56 14.41 19.28Q12.85 18.13 10.33 17.41Q10.18 17.37 9.89 17.28Q6.46 16.29 4.71 16.56Q3.98 16.67 3.55 17.09Q3.18 17.46 3.06 18.07Q2.86 18.99 3.12 20.14Q3.26 20.78 3.62 21.25Q4.57 22.44 7.04 22.45ZM13.52 21.07C11.37 21.32 9.21 21.45 7.04 21.45C5.71 21.45 4.35 21.08 4.09 19.93C3.92 19.16 3.94 18.72 4.03 18.28C4.11 17.91 4.24 17.64 4.86 17.54C6.39 17.32 7.29 17.57 9.61 18.24C9.75 18.28 9.9 18.33 10.06 18.37C11.82 18.88 13.09 19.55 13.82 20.08C14.18 20.35 13.99 21.04 13.52 21.07ZM26.1 32.19Q28.56 32.18 30.03 32.18Q31.49 32.18 33.95 32.19Q38.3 32.2 40.2 32.13L40.2 32.2L41.32 32.07Q42.65 31.91 43.61 31.23Q43.95 30.98 44.24 30.67Q45.06 29.81 45.06 28.95Q45.07 28.11 44.3 27.26Q42.97 25.76 37.36 24.94Q33.27 24.35 30.02 24.35Q27.34 24.35 23.43 24.84Q22.95 24.91 22.69 24.94Q17.51 25.59 15.79 27.2Q15.19 27.76 15.04 28.44Q14.97 28.73 14.99 29.04Q15 29.17 15.02 29.3Q15.15 30.02 15.76 30.64Q16.17 31.07 16.65 31.37Q17.57 31.93 18.75 32.06Q20.06 32.21 26.1 32.19ZM40.2 31.14C38.86 31.2 36.87 31.2 33.96 31.19L33.96 31.19C32.8 31.19 31.49 31.18 30.03 31.18C28.56 31.18 27.26 31.19 26.1 31.19L26.1 31.19C22.34 31.2 20.12 31.21 18.86 31.07C17.16 30.88 15 29.32 16.48 27.92C17.46 27 19.76 26.32 22.81 25.93C25.87 25.54 27.16 25.35 30.02 25.35C32.87 25.35 34.03 25.47 37.22 25.93C40.41 26.4 42.82 27.09 43.56 27.92C44.64 29.13 43.55 30.3 42.2 30.82C41.87 30.95 41.53 31.03 41.2 31.07L41.2 31.07L41.2 31.07L41.2 31.07C40.91 31.1 40.58 31.12 40.2 31.14Z" fill="#0066FF" fill-opacity="1.000000" fill-rule="evenodd"/>
</svg>
