<svg width="58.666626" height="55.000000" viewBox="0 0 58.6666 55" fill="none" xmlns="http://www.w3.org/2000/svg" xmlns:xlink="http://www.w3.org/1999/xlink">
	<desc>
			Created with Pixso.
	</desc>
	<defs/>
	<path id="Vector" d="M36.99 14.19C36.73 14.04 36.45 13.94 36.15 13.9C35.85 13.87 35.55 13.89 35.26 13.96C34.97 14.04 34.7 14.18 34.46 14.36C34.22 14.55 34.02 14.77 33.88 15.03L20.79 37.68C20.63 37.94 20.54 38.23 20.5 38.53C20.46 38.82 20.48 39.13 20.56 39.42C20.64 39.71 20.77 39.98 20.95 40.21C21.14 40.45 21.37 40.65 21.63 40.8C21.97 41.01 22.37 41.11 22.77 41.09C23.17 41.09 23.56 40.98 23.91 40.79C24.25 40.59 24.54 40.3 24.75 39.96L37.84 17.31C37.99 17.05 38.09 16.76 38.13 16.46C38.18 16.16 38.16 15.86 38.08 15.57C38 15.28 37.86 15.01 37.68 14.77C37.49 14.53 37.26 14.34 36.99 14.19ZM26.95 21.74C27.02 19.65 26.28 17.62 24.86 16.08C23.45 14.54 21.48 13.63 19.39 13.53C17.3 13.63 15.33 14.54 13.91 16.08C12.49 17.62 11.73 19.65 11.8 21.74C11.72 23.84 12.48 25.88 13.9 27.43C15.32 28.97 17.29 29.89 19.39 29.99C21.49 29.89 23.46 28.97 24.87 27.42C26.29 25.88 27.03 23.84 26.95 21.74ZM19.39 25.41C18.51 25.3 17.71 24.87 17.15 24.18C16.59 23.5 16.31 22.62 16.39 21.74C16.3 20.86 16.57 19.98 17.14 19.29C17.7 18.61 18.51 18.17 19.39 18.08C20.27 18.17 21.08 18.61 21.64 19.29C22.19 19.98 22.45 20.86 22.36 21.74C22.44 22.62 22.18 23.49 21.62 24.18C21.07 24.86 20.27 25.3 19.39 25.41ZM39.27 25C37.18 25.1 35.21 26.01 33.8 27.55C32.38 29.09 31.63 31.12 31.71 33.21C31.62 35.31 32.37 37.35 33.78 38.9C35.2 40.44 37.17 41.36 39.27 41.46C41.36 41.36 43.34 40.44 44.76 38.9C46.18 37.35 46.93 35.31 46.86 33.21C46.92 31.12 46.17 29.09 44.75 27.55C43.33 26.01 41.36 25.1 39.27 25ZM39.27 36.88C38.39 36.78 37.59 36.33 37.03 35.65C36.48 34.96 36.21 34.09 36.3 33.21C36.21 32.33 36.48 31.46 37.03 30.77C37.59 30.09 38.39 29.65 39.27 29.55C40.15 29.64 40.96 30.08 41.52 30.76C42.08 31.45 42.35 32.33 42.27 33.21C42.34 34.09 42.07 34.97 41.51 35.65C40.95 36.34 40.14 36.78 39.27 36.88Z" fill="#0066FF" fill-opacity="1.000000" fill-rule="nonzero"/>
	<path id="Vector" d="M26.95 21.74C27.02 19.65 26.28 17.62 24.86 16.08C23.45 14.54 21.48 13.63 19.39 13.53C17.3 13.63 15.33 14.54 13.91 16.08C12.49 17.62 11.73 19.65 11.8 21.74C11.72 23.84 12.48 25.88 13.9 27.43C15.32 28.97 17.29 29.89 19.39 29.99C21.49 29.89 23.46 28.97 24.87 27.42C26.29 25.88 27.03 23.84 26.95 21.74ZM19.39 28.99Q17.98 28.91 16.8 28.36Q15.6 27.8 14.63 26.75Q13.66 25.69 13.2 24.45Q12.75 23.21 12.8 21.78L12.8 21.74L12.8 21.71Q12.75 20.28 13.21 19.05Q13.67 17.81 14.64 16.76Q15.61 15.71 16.81 15.15Q17.99 14.61 19.39 14.53Q20.79 14.61 21.97 15.15Q23.16 15.71 24.12 16.76Q25.09 17.81 25.55 19.05Q26 20.28 25.95 21.7L25.94 21.74L25.95 21.78Q26.01 23.21 25.56 24.45Q25.1 25.69 24.14 26.75Q23.17 27.8 21.98 28.36Q20.8 28.91 19.39 28.99ZM36.99 14.19C36.73 14.04 36.45 13.94 36.15 13.9C35.85 13.87 35.55 13.89 35.26 13.96C34.97 14.04 34.7 14.18 34.46 14.36C34.22 14.55 34.02 14.77 33.88 15.03L20.79 37.68C20.63 37.94 20.54 38.23 20.5 38.53C20.46 38.82 20.48 39.13 20.56 39.42C20.64 39.71 20.77 39.98 20.95 40.21C21.14 40.45 21.37 40.65 21.63 40.8C21.97 41.01 22.37 41.11 22.77 41.09C23.17 41.09 23.56 40.98 23.91 40.79C24.25 40.59 24.54 40.3 24.75 39.96L37.84 17.31C37.99 17.05 38.09 16.76 38.13 16.46C38.18 16.16 38.16 15.86 38.08 15.57C38 15.28 37.86 15.01 37.68 14.77C37.49 14.53 37.26 14.34 36.99 14.19ZM35.77 14.89Q35.89 14.88 36.02 14.9Q36.14 14.91 36.26 14.95Q36.38 14.99 36.49 15.06L36.5 15.06L36.51 15.07Q36.62 15.13 36.72 15.21Q36.81 15.29 36.89 15.39Q36.97 15.49 37.02 15.6Q37.08 15.71 37.11 15.83Q37.15 15.95 37.15 16.08Q37.16 16.2 37.14 16.32Q37.14 16.34 37.14 16.36Q37.1 16.59 36.97 16.81L23.88 39.45Q23.8 39.6 23.68 39.71Q23.56 39.83 23.41 39.92Q23.26 40 23.1 40.05Q22.93 40.09 22.76 40.09L22.74 40.09L22.72 40.09Q22.57 40.1 22.42 40.06Q22.28 40.02 22.15 39.94L22.14 39.94L22.12 39.93Q22.01 39.87 21.92 39.78Q21.82 39.7 21.75 39.6Q21.67 39.5 21.61 39.39Q21.56 39.28 21.52 39.16Q21.49 39.03 21.48 38.91Q21.47 38.78 21.49 38.66Q21.5 38.54 21.54 38.43Q21.58 38.3 21.65 38.18L34.74 15.53Q34.81 15.42 34.89 15.33Q34.97 15.23 35.07 15.15Q35.17 15.07 35.28 15.02Q35.4 14.96 35.52 14.93Q35.64 14.9 35.77 14.89ZM15.56 23.34Q15.81 24.13 16.37 24.82Q16.94 25.5 17.66 25.9Q18.39 26.3 19.28 26.4L19.39 26.41L19.51 26.4Q20.39 26.3 21.12 25.9Q21.84 25.5 22.4 24.81Q22.96 24.12 23.2 23.32Q23.43 22.58 23.37 21.75Q23.44 20.91 23.21 20.16Q22.98 19.36 22.41 18.66Q21.85 17.97 21.12 17.57Q20.39 17.18 19.5 17.08L19.39 17.07L19.29 17.08Q18.39 17.18 17.66 17.57Q16.93 17.96 16.36 18.66Q15.79 19.35 15.55 20.15Q15.32 20.9 15.38 21.75Q15.33 22.59 15.56 23.34ZM16.39 21.74C16.31 22.62 16.59 23.5 17.15 24.18C17.71 24.87 18.51 25.3 19.39 25.41C20.27 25.3 21.07 24.86 21.62 24.18C22.18 23.49 22.44 22.62 22.36 21.74C22.45 20.86 22.19 19.98 21.64 19.29C21.08 18.61 20.27 18.17 19.39 18.08C18.51 18.17 17.7 18.61 17.14 19.29C16.57 19.98 16.3 20.86 16.39 21.74ZM39.27 25C37.18 25.1 35.21 26.01 33.8 27.55C32.38 29.09 31.63 31.12 31.71 33.21C31.62 35.31 32.37 37.35 33.78 38.9C35.2 40.44 37.17 41.36 39.27 41.46C41.36 41.36 43.34 40.44 44.76 38.9C46.18 37.35 46.93 35.31 46.86 33.21C46.92 31.12 46.17 29.09 44.75 27.55C43.33 26.01 41.36 25.1 39.27 25ZM39.27 26Q37.87 26.08 36.69 26.63Q35.5 27.18 34.53 28.23Q33.57 29.28 33.11 30.52Q32.66 31.75 32.71 33.17L32.71 33.21L32.71 33.25Q32.65 34.68 33.1 35.92Q33.55 37.16 34.52 38.22Q35.49 39.27 36.68 39.83Q37.86 40.39 39.27 40.46Q40.67 40.39 41.86 39.83Q43.05 39.27 44.02 38.22Q45 37.17 45.45 35.92Q45.91 34.68 45.86 33.25L45.85 33.21L45.86 33.18Q45.9 31.75 45.44 30.52Q44.98 29.28 44.01 28.23Q43.04 27.18 41.85 26.62Q40.67 26.08 39.27 26ZM35.45 34.8Q35.69 35.59 36.26 36.28Q36.82 36.97 37.54 37.37Q38.26 37.77 39.15 37.87L39.26 37.88L39.38 37.87Q40.27 37.77 40.99 37.37Q41.72 36.98 42.28 36.29Q42.85 35.6 43.1 34.81Q43.33 34.06 43.27 33.22Q43.34 32.37 43.11 31.62Q42.86 30.82 42.29 30.13Q41.73 29.43 41 29.04Q40.26 28.65 39.37 28.55L39.26 28.54L39.15 28.55Q38.26 28.66 37.54 29.06Q36.82 29.45 36.26 30.14Q35.69 30.84 35.45 31.63Q35.23 32.38 35.29 33.21Q35.23 34.05 35.45 34.8ZM36.3 33.21C36.21 34.09 36.48 34.96 37.03 35.65C37.59 36.33 38.39 36.78 39.27 36.88C40.14 36.78 40.95 36.34 41.51 35.65C42.07 34.97 42.34 34.09 42.27 33.21C42.35 32.33 42.08 31.45 41.52 30.76C40.96 30.08 40.15 29.64 39.27 29.55C38.39 29.65 37.59 30.09 37.03 30.77C36.48 31.46 36.21 32.33 36.3 33.21Z" fill="#0066FF" fill-opacity="1.000000" fill-rule="evenodd"/>
	<path id="Vector" d="M29.33 0.01C21.79 -0.23 14.47 2.53 8.97 7.69C3.47 12.84 0.24 19.96 0 27.5C0.24 35.03 3.47 42.15 8.97 47.3C14.47 52.46 21.79 55.22 29.33 54.98C36.86 55.22 44.18 52.46 49.68 47.3C55.18 42.15 58.41 35.03 58.66 27.5C58.41 19.96 55.18 12.84 49.68 7.69C44.18 2.53 36.86 -0.23 29.33 0.01ZM29.33 50.4C23.01 50.63 16.86 48.35 12.22 44.05C7.58 39.76 4.84 33.81 4.58 27.5C4.84 21.18 7.58 15.23 12.22 10.94C16.86 6.64 23.01 4.36 29.33 4.59C35.65 4.36 41.8 6.64 46.43 10.94C51.07 15.23 53.82 21.18 54.08 27.5C53.82 33.81 51.07 39.76 46.43 44.05C41.8 48.35 35.65 50.63 29.33 50.4Z" fill="#0066FF" fill-opacity="1.000000" fill-rule="nonzero"/>
	<path id="Vector" d="M29.33 0.01C21.79 -0.23 14.47 2.53 8.97 7.69C3.47 12.84 0.24 19.96 0 27.5C0.24 35.03 3.47 42.15 8.97 47.3C14.47 52.46 21.79 55.22 29.33 54.98C36.86 55.22 44.18 52.46 49.68 47.3C55.18 42.15 58.41 35.03 58.66 27.5C58.41 19.96 55.18 12.84 49.68 7.69C44.18 2.53 36.86 -0.23 29.33 0.01ZM57.66 27.5Q57.47 21.85 55.31 17.09Q53.15 12.3 49 8.42Q44.86 4.54 39.96 2.69Q35.04 0.83 29.36 1.01L29.33 1.01L29.3 1.01Q23.62 0.83 18.7 2.69Q13.8 4.54 9.66 8.42Q5.51 12.3 3.34 17.09Q1.19 21.85 1 27.5Q1.19 33.14 3.34 37.9Q5.51 42.69 9.66 46.57Q13.8 50.45 18.7 52.31Q23.62 54.16 29.3 53.98L29.33 53.98L29.36 53.98Q35.04 54.16 39.96 52.31Q44.86 50.45 49 46.57Q53.15 42.69 55.31 37.9Q57.47 33.14 57.66 27.5ZM5.78 36.98Q7.77 41.29 11.54 44.79Q15.31 48.28 19.76 49.93Q24.21 51.58 29.33 51.4Q34.45 51.58 38.89 49.93Q43.34 48.28 47.11 44.79Q50.89 41.29 52.88 36.98Q54.87 32.67 55.08 27.54L55.08 27.5L55.08 27.45Q54.87 22.32 52.88 18.01Q50.89 13.7 47.11 10.2Q43.34 6.71 38.89 5.06Q34.45 3.41 29.33 3.59Q24.21 3.41 19.76 5.06Q15.31 6.71 11.54 10.2Q7.77 13.7 5.78 18.01Q3.79 22.32 3.58 27.45L3.58 27.5L3.58 27.54Q3.79 32.67 5.78 36.98ZM29.33 4.59C23.01 4.36 16.86 6.64 12.22 10.94C7.58 15.23 4.84 21.18 4.58 27.5C4.84 33.81 7.58 39.76 12.22 44.05C16.86 48.35 23.01 50.63 29.33 50.4C35.65 50.63 41.8 48.35 46.43 44.05C51.07 39.76 53.82 33.81 54.08 27.5C53.82 21.18 51.07 15.23 46.43 10.94C41.8 6.64 35.65 4.36 29.33 4.59Z" fill="#0066FF" fill-opacity="1.000000" fill-rule="evenodd"/>
</svg>
