<svg width="60.000000" height="42.000000" viewBox="0 0 60 42" fill="none" xmlns="http://www.w3.org/2000/svg" xmlns:xlink="http://www.w3.org/1999/xlink">
	<desc>
			Created with Pixso.
	</desc>
	<defs/>
	<path id="Vector" d="M9.75 0C7.16 0 4.68 1.02 2.85 2.85C1.02 4.68 0 7.16 0 9.75L0 13.5L60 13.5L60 9.75C60 8.46 59.74 7.2 59.25 6.01C58.76 4.83 58.04 3.76 57.14 2.85C56.23 1.95 55.16 1.23 53.98 0.74C52.79 0.25 51.53 0 50.25 0L9.75 0ZM60 18L0 18L0 32.25C0 34.83 1.02 37.31 2.85 39.14C4.68 40.97 7.16 42 9.75 42L50.25 42C51.53 42 52.79 41.74 53.98 41.25C55.16 40.76 56.23 40.04 57.14 39.14C58.04 38.23 58.76 37.16 59.25 35.98C59.74 34.79 60 33.53 60 32.25L60 18ZM41.25 28.5L48.75 28.5C49.34 28.5 49.91 28.73 50.34 29.15C50.76 29.58 51 30.15 51 30.75C51 31.34 50.76 31.91 50.34 32.34C49.91 32.76 49.34 33 48.75 33L41.25 33C40.65 33 40.08 32.76 39.65 32.34C39.23 31.91 39 31.34 39 30.75C39 30.15 39.23 29.58 39.65 29.15C40.08 28.73 40.65 28.5 41.25 28.5Z" fill="#0066FF" fill-opacity="1.000000" fill-rule="nonzero"/>
	<path id="Vector" d="M9.75 0C7.16 0 4.68 1.02 2.85 2.85C1.02 4.68 0 7.16 0 9.75L0 13.5L60 13.5L60 9.75C60 8.46 59.74 7.2 59.25 6.01C58.76 4.83 58.04 3.76 57.14 2.85C56.23 1.95 55.16 1.23 53.98 0.74C52.79 0.25 51.53 0 50.25 0L9.75 0ZM59 12.5L59 9.75Q59 8.87 58.83 8.04Q58.66 7.2 58.33 6.4Q58 5.59 57.52 4.88Q57.05 4.17 56.43 3.56Q55.82 2.94 55.11 2.47Q54.4 1.99 53.59 1.66Q52.79 1.33 51.95 1.16Q51.12 1 50.25 1L9.75 1Q7.93 1 6.39 1.64Q4.84 2.28 3.56 3.56Q2.28 4.84 1.64 6.39Q1 7.93 1 9.75L1 12.5L59 12.5ZM1 18L0 18L0 32.25C0 34.83 1.02 37.31 2.85 39.14C4.68 40.97 7.16 42 9.75 42L50.25 42C51.53 42 52.79 41.74 53.98 41.25C55.16 40.76 56.23 40.04 57.14 39.14C58.04 38.23 58.76 37.16 59.25 35.98C59.74 34.79 60 33.53 60 32.25L60 18L1 18ZM59 19L1 19L1 32.25Q1 34.06 1.64 35.6Q2.28 37.15 3.56 38.43Q4.84 39.71 6.39 40.35Q7.93 41 9.75 41L50.25 41Q51.12 41 51.95 40.83Q52.79 40.66 53.59 40.33Q54.4 40 55.11 39.52Q55.82 39.05 56.43 38.43Q57.05 37.82 57.52 37.11Q58 36.4 58.33 35.59Q58.66 34.79 58.83 33.95Q59 33.12 59 32.25L59 19ZM49.99 27.73Q49.42 27.5 48.75 27.5L41.25 27.5Q40.57 27.5 40 27.73Q39.42 27.97 38.95 28.45Q38.47 28.92 38.23 29.5Q38 30.07 38 30.75Q38 31.42 38.23 31.99Q38.47 32.57 38.95 33.04Q39.42 33.52 40 33.76Q40.57 34 41.25 34L48.75 34Q49.42 34 49.99 33.76Q50.57 33.52 51.04 33.04Q51.52 32.57 51.76 31.99Q52 31.42 52 30.75Q52 30.07 51.76 29.5Q51.52 28.92 51.04 28.45Q50.57 27.97 49.99 27.73ZM41.25 28.5L48.75 28.5C49.34 28.5 49.91 28.73 50.34 29.15C50.76 29.58 51 30.15 51 30.75C51 31.34 50.76 31.91 50.34 32.34C49.91 32.76 49.34 33 48.75 33L41.25 33C40.65 33 40.08 32.76 39.65 32.34C39.23 31.91 39 31.34 39 30.75C39 30.15 39.23 29.58 39.65 29.15C40.08 28.73 40.65 28.5 41.25 28.5Z" fill="#0066FF" fill-opacity="1.000000" fill-rule="evenodd"/>
</svg>
